<svg xmlns="http://www.w3.org/2000/svg" viewBox="0 0 120 40" preserveAspectRatio="none">
   <!-- background color -->
   <rect x="0" y="0" width="120%" height="40" fill="#2a2a2a" />
   
   <!-- border styling -->
   <rect x="4" y="2" width="10" height="1" fill="white" />\
   <rect x="14" y="4" width="6" height="1" fill="white" />
   <rect x="20" y="2" width="78" height="1" fill="white" />
   <rect x="98" y="4" width="2" height="1" fill="white" />
   <rect x="100" y="6" width="2" height="1" fill="white" />
   <rect x="102" y="2" width="10" height="1" fill="white" />
   <rect x="2" y="4" width="1" height="15" fill="white" /> 
   <rect x="3 " y="20" width="1" height="4" fill="white" /> 
   <rect x="2" y="23" width="1" height="11" fill="white" /> 
   <rect x="4" y="37" width="25" height="1" fill="white" />
   <rect x="29" y="39" width="8" height="2" fill="white" />
   <rect x="37" y="37" width="44" height="1" fill="white" />
   <rect x="80" y="35" width="2" height="1" fill="white" />
   <rect x="82" y="33" width="2" height="1" fill="white" />
   <rect x="84" y="35" width="2" height="1" fill="white" />
   <rect x="85" y="37" width="31" height="1" fill="white" />
   <rect x="117" y="4" width="1" height="32" fill="white" />
   
   <!-- rounded-corner styling -->
   <rect x="3" y="3" width="1" height="1" fill="white" />
   <rect x="4" y="4" width="1" height="1" fill="white" />
   
   <rect x="116" y="3" width="1" height="1" fill="white" />
   <rect x="115" y="4" width="1" height="1" fill="white" />
   
   <rect x="3" y="36" width="1" height="1" fill="white" />
   <rect x="4" y="35" width="1" height="1" fill="white" />
   
   <rect x="116" y="36" width="1" height="1" fill="white" />
   <rect x="115" y="35" width="1" height="1" fill="white" />   
</svg>