{
	"asset":{
		"generator":"Khronos glTF Blender I/O v4.3.47",
		"version":"2.0"
	},
	"scene":0,
	"scenes":[
		{
			"name":"Scene",
			"nodes":[
				0
			]
		}
	],
	"nodes":[
		{
			"mesh":0,
			"name":"Cylinder"
		}
	],
	"materials":[
		{
			"doubleSided":true,
			"name":"Material",
			"pbrMetallicRoughness":{
				"baseColorTexture":{
					"index":0
				},
				"metallicFactor":0,
				"roughnessFactor":0.5
			}
		}
	],
	"meshes":[
		{
			"name":"Cylinder.001",
			"primitives":[
				{
					"attributes":{
						"POSITION":0,
						"NORMAL":1,
						"TEXCOORD_0":2
					},
					"indices":3,
					"material":0
				}
			]
		}
	],
	"textures":[
		{
			"sampler":0,
			"source":0
		}
	],
	"images":[
		{
			"mimeType":"image/png",
			"name":"Untitled drawing (7)",
			"uri":"Untitled%20drawing%207.png"
		}
	],
	"accessors":[
		{
			"bufferView":0,
			"componentType":5126,
			"count":1932,
			"max":[
				1,
				0.6249222755432129,
				1
			],
			"min":[
				-1,
				-0.3150000274181366,
				-1
			],
			"type":"VEC3"
		},
		{
			"bufferView":1,
			"componentType":5126,
			"count":1932,
			"type":"VEC3"
		},
		{
			"bufferView":2,
			"componentType":5126,
			"count":1932,
			"type":"VEC2"
		},
		{
			"bufferView":3,
			"componentType":5123,
			"count":3588,
			"type":"SCALAR"
		}
	],
	"bufferViews":[
		{
			"buffer":0,
			"byteLength":23184,
			"byteOffset":0,
			"target":34962
		},
		{
			"buffer":0,
			"byteLength":23184,
			"byteOffset":23184,
			"target":34962
		},
		{
			"buffer":0,
			"byteLength":15456,
			"byteOffset":46368,
			"target":34962
		},
		{
			"buffer":0,
			"byteLength":7176,
			"byteOffset":61824,
			"target":34963
		}
	],
	"samplers":[
		{
			"magFilter":9729,
			"minFilter":9987
		}
	],
	"buffers":[
		{
			"byteLength":69000,
			"uri":"untitled.bin"
		}
	]
}
